<?xml version="1.0" encoding="UTF-8"?>
<svg id="Layer_2" data-name="Layer 2" xmlns="http://www.w3.org/2000/svg" viewBox="0 0 291.07 69.81">
  <defs>
    <style>
      .cls-1 {
        fill: #00dd78;
      }

      .cls-2 {
        fill: #fff;
      }
    </style>
  </defs>
  <g id="Layer_1-2" data-name="Layer 1">
    <g>
      <g>
        <path class="cls-2" d="M67.55,40.35l-5.71,5.71v8.08c0,4.26-3.45,7.7-7.71,7.7h-8.07l-5.71,5.71c-3.01,3.01-7.89,3.01-10.9,0l-5.71-5.71h-8.07c-4.26,0-7.7-3.45-7.7-7.7v-8.07l-5.71-5.71c-3.01-3.01-3.01-7.89,0-10.9l5.71-5.71v-8.07c0-4.26,3.45-7.7,7.7-7.7h8.07l5.71-5.71c3.01-3.01,7.89-3.01,10.9,0l5.71,5.71h8.07c4.26,0,7.71,3.45,7.71,7.7v8.08l5.71,5.71c3.01,3.01,3.01,7.89,0,10.9Z"/>
        <path class="cls-1" d="M42.58,27.23l9.75,4.76c1.61,1.61,1.61,4.21,0,5.82l-9.75,4.76-4.76,9.75c-1.61,1.61-4.21,1.6-5.82,0l-4.76-9.75-9.75-4.77c-1.61-1.61-1.61-4.21,0-5.82l9.75-4.77,4.77-9.75c1.6-1.6,4.21-1.61,5.82,0l4.76,9.75Z"/>
      </g>
      <g>
        <path class="cls-2" d="M81.69,19.3h7.31l.26,4.79h.41c.65-1.61,1.74-2.9,3.27-3.86,1.53-.96,3.36-1.44,5.49-1.44,3.3,0,5.97,1.19,8.01,3.58,2.04,2.39,3.06,5.97,3.06,10.74s-1.02,8.31-3.06,10.71c-2.04,2.4-4.71,3.61-8.01,3.61-2.13,0-3.96-.49-5.49-1.47-1.53-.98-2.62-2.26-3.27-3.84h-.41v13.39h-7.57V19.3ZM100.06,39.31c1.12-1.32,1.67-3.39,1.67-6.21s-.56-4.88-1.67-6.21c-1.12-1.32-2.6-1.98-4.46-1.98-1.41,0-2.58.33-3.5.98-.93.65-1.61,1.5-2.06,2.55-.45,1.05-.67,2.16-.67,3.32v2.68c0,1.17.22,2.28.67,3.32.45,1.05,1.13,1.9,2.06,2.55s2.09.98,3.5.98c1.85,0,3.34-.66,4.46-1.98Z"/>
        <path class="cls-2" d="M112.24,9.36h7.57v14.94h.31c.75-1.82,1.92-3.19,3.5-4.12,1.58-.93,3.35-1.39,5.31-1.39,1.85,0,3.51.38,4.97,1.13,1.46.76,2.62,1.97,3.48,3.63.86,1.67,1.29,3.89,1.29,6.67v16.69h-7.57v-15.04c0-2.34-.41-4.07-1.24-5.2-.82-1.13-2.15-1.7-3.97-1.7-1.96,0-3.46.66-4.51,1.98-1.05,1.32-1.57,2.86-1.57,4.61v15.35h-7.57V9.36Z"/>
        <path class="cls-2" d="M142.83,19.3h6.85l.31,4.43h.26c.62-1.79,1.61-3.03,2.96-3.73,1.36-.7,2.91-1.06,4.66-1.06h1.55v7.11h-1.7c-2.54,0-4.38.56-5.51,1.67-1.13,1.12-1.73,2.7-1.8,4.76v14.42h-7.57v-27.61Z"/>
        <path class="cls-2" d="M162.2,43.79c-2.03-2.39-3.04-5.95-3.04-10.69s1.01-8.35,3.04-10.74c2.03-2.39,4.69-3.58,7.98-3.58,2.13,0,3.96.48,5.49,1.44,1.53.96,2.62,2.25,3.27,3.86h.41l.31-4.79h7.26v27.61h-7.57v-4.84h-.41c-.65,1.58-1.74,2.86-3.27,3.84-1.53.98-3.36,1.47-5.49,1.47-3.3,0-5.96-1.19-7.98-3.58ZM176.55,40.26c.91-.65,1.59-1.5,2.03-2.55.45-1.05.67-2.15.67-3.32v-2.63c0-1.2-.22-2.32-.67-3.35-.45-1.03-1.12-1.87-2.03-2.52-.91-.65-2.07-.98-3.48-.98-1.85,0-3.35.66-4.48,1.98-1.13,1.32-1.7,3.39-1.7,6.21s.57,4.83,1.7,6.16c1.13,1.32,2.63,1.98,4.48,1.98,1.41,0,2.57-.33,3.48-.98Z"/>
        <path class="cls-2" d="M191.35,19.3h7.31l.26,5h.31c.69-1.82,1.8-3.19,3.35-4.12,1.55-.93,3.25-1.39,5.1-1.39s3.67.46,5.25,1.39c1.58.93,2.75,2.52,3.5,4.79h.41c.65-2.06,1.81-3.61,3.48-4.64,1.67-1.03,3.55-1.55,5.64-1.55,1.79,0,3.38.38,4.79,1.13,1.41.76,2.53,1.97,3.37,3.63.84,1.67,1.26,3.89,1.26,6.67v16.69h-7.57v-15.04c0-2.34-.39-4.07-1.16-5.2-.77-1.13-2.02-1.7-3.73-1.7-1.82,0-3.24.66-4.25,1.98-1.01,1.32-1.52,2.86-1.52,4.61v15.35h-7.57v-15.04c0-2.34-.39-4.07-1.16-5.2-.77-1.13-2.02-1.7-3.73-1.7-1.85,0-3.28.66-4.28,1.98-1,1.32-1.49,2.86-1.49,4.61v15.35h-7.57v-27.61Z"/>
        <path class="cls-2" d="M244.28,45.62c-2.04-1.17-3.61-2.81-4.71-4.92-1.1-2.11-1.65-4.58-1.65-7.39,0-2.99.56-5.56,1.67-7.73,1.12-2.16,2.69-3.84,4.71-5.02,2.03-1.19,4.39-1.78,7.11-1.78,3.19,0,5.82.7,7.88,2.09,2.06,1.39,3.54,3.3,4.43,5.72.89,2.42,1.18,5.16.88,8.22h-19.21c-.03,2.2.53,3.89,1.7,5.07,1.17,1.18,2.69,1.78,4.58,1.78,1.44,0,2.67-.32,3.68-.95,1.01-.64,1.66-1.48,1.93-2.55h7.16c-.24,1.85-.94,3.47-2.09,4.84-1.15,1.37-2.64,2.45-4.46,3.22-1.82.77-3.9,1.16-6.23,1.16-2.88,0-5.35-.58-7.39-1.75ZM247.24,25.97c-1.06.98-1.67,2.31-1.8,3.99h11.74c-.1-1.85-.7-3.23-1.78-4.12-1.08-.89-2.41-1.34-3.99-1.34-1.72,0-3.11.49-4.17,1.47Z"/>
        <path class="cls-2" d="M269.26,44.87c-2.18-1.7-3.25-3.92-3.22-6.67h7.42c.03,1.48.56,2.53,1.57,3.17,1.01.64,2.26.95,3.73.95s2.71-.27,3.5-.8c.79-.53,1.18-1.26,1.18-2.19,0-1.27-.46-2.09-1.36-2.47-.91-.38-2.34-.7-4.3-.98-2.03-.27-3.88-.68-5.56-1.21-1.68-.53-3.01-1.35-3.99-2.45-.98-1.1-1.47-2.66-1.47-4.69,0-2.92,1.11-5.11,3.32-6.57,2.22-1.46,5.13-2.19,8.73-2.19s6.35.76,8.45,2.29c2.09,1.53,3.18,3.67,3.24,6.41h-7.42c0-1.17-.4-2.06-1.21-2.68-.81-.62-1.9-.93-3.27-.93s-2.47.27-3.19.8c-.72.53-1.08,1.23-1.08,2.09,0,1.03.46,1.75,1.39,2.16.93.41,2.4.76,4.43,1.03,1.44.21,2.82.46,4.12.75,1.3.29,2.46.74,3.48,1.34,1.01.6,1.82,1.43,2.42,2.47.6,1.05.9,2.41.9,4.1,0,3.02-1.12,5.25-3.35,6.67-2.23,1.43-5.29,2.14-9.17,2.14s-7.12-.85-9.3-2.55Z"/>
      </g>
    </g>
  </g>
</svg>